<svg width="209" height="44" viewBox="0 0 209 44" fill="none" xmlns="http://www.w3.org/2000/svg">
<g filter="url(#filter0_b_2319_831)">
<g clip-path="url(#clip0_2319_831)">
<rect width="209" height="44" rx="22" fill="black" fill-opacity="0.52"/>
<g filter="url(#filter1_f_2319_831)">
<path d="M-16 -16.1231C-16 -23.2348 -12.7731 -29 -8.7925 -29H69.7925C73.7731 -29 77 -23.2348 77 -16.1231V-14.8769C77 -7.76519 73.7731 -2 69.7925 -2H-8.7925C-12.7731 -2 -16 -7.76519 -16 -14.8769V-16.1231Z" fill="#FF7401"/>
</g>
<g filter="url(#filter2_f_2319_831)">
<path d="M137 57.8769C137 50.7652 140.227 45 144.208 45H222.793C226.773 45 230 50.7652 230 57.8769V59.1231C230 66.2348 226.773 72 222.793 72H144.207C140.227 72 137 66.2348 137 59.1231V57.8769Z" fill="#FF7401"/>
</g>
</g>
</g>
<defs>
<filter id="filter0_b_2319_831" x="-29.4" y="-29.4" width="267.8" height="102.8" filterUnits="userSpaceOnUse" color-interpolation-filters="sRGB">
<feFlood flood-opacity="0" result="BackgroundImageFix"/>
<feGaussianBlur in="BackgroundImageFix" stdDeviation="14.7"/>
<feComposite in2="SourceAlpha" operator="in" result="effect1_backgroundBlur_2319_831"/>
<feBlend mode="normal" in="SourceGraphic" in2="effect1_backgroundBlur_2319_831" result="shape"/>
</filter>
<filter id="filter1_f_2319_831" x="-61" y="-74" width="183" height="117" filterUnits="userSpaceOnUse" color-interpolation-filters="sRGB">
<feFlood flood-opacity="0" result="BackgroundImageFix"/>
<feBlend mode="normal" in="SourceGraphic" in2="BackgroundImageFix" result="shape"/>
<feGaussianBlur stdDeviation="22.5" result="effect1_foregroundBlur_2319_831"/>
</filter>
<filter id="filter2_f_2319_831" x="92" y="0" width="183" height="117" filterUnits="userSpaceOnUse" color-interpolation-filters="sRGB">
<feFlood flood-opacity="0" result="BackgroundImageFix"/>
<feBlend mode="normal" in="SourceGraphic" in2="BackgroundImageFix" result="shape"/>
<feGaussianBlur stdDeviation="22.5" result="effect1_foregroundBlur_2319_831"/>
</filter>
<clipPath id="clip0_2319_831">
<rect width="209" height="44" rx="22" fill="white"/>
</clipPath>
</defs>
</svg>
