<svg width="162" height="52" viewBox="0 0 162 52" fill="none" xmlns="http://www.w3.org/2000/svg">
<path d="M0 0H35V6H0V0Z" fill="#D9D9D9"/>
<path d="M0 23H35V29H0V23Z" fill="#D9D9D9"/>
<path d="M0 46H35V52H0V46Z" fill="#D9D9D9"/>
<path d="M6 1L6 29H0L1.43051e-06 1L6 1Z" fill="#D9D9D9"/>
<path d="M35 23V51H29L29 23H35Z" fill="#D9D9D9"/>
<path d="M51 2.62268e-07L51 52H45L45 0L51 2.62268e-07Z" fill="#D9D9D9"/>
<path d="M162 25V52H156V25H162Z" fill="#FF44D3"/>
<path d="M162 16V22H156V16H162Z" fill="#FF44D3"/>
<path d="M109 2.62268e-07V52H103V0L109 2.62268e-07Z" fill="#D9D9D9"/>
<path d="M146 2.62268e-07V52H140V0L146 2.62268e-07Z" fill="#D9D9D9"/>
<path d="M113 46H140V52H113V46Z" fill="#D9D9D9"/>
<path d="M113 2.62268e-07L140 0V6H113V2.62268e-07Z" fill="#D9D9D9"/>
<path d="M71 2.62268e-07V52H65V0L71 2.62268e-07Z" fill="#D9D9D9"/>
<path d="M88 2.62268e-07V52H82V0L88 2.62268e-07Z" fill="#D9D9D9"/>
<path d="M61 23H93V29H61V23Z" fill="#D9D9D9"/>
<path d="M65 0L88 2.62268e-07V6H65V0Z" fill="#D9D9D9"/>
</svg>
