<svg width="368" height="60" viewBox="0 0 368 60" fill="none" xmlns="http://www.w3.org/2000/svg">
<mask id="path-1-outside-1_2391_477" maskUnits="userSpaceOnUse" x="-1" y="-1" width="370" height="62" fill="black">
<rect fill="white" x="-1" y="-1" width="370" height="62"/>
<path d="M0.69375 58V2H26.2938C31.4138 2 35.8138 2.82666 39.4938 4.48C43.2271 6.13333 46.1071 8.53333 48.1338 11.68C50.1604 14.7733 51.1738 18.4533 51.1738 22.72C51.1738 26.9333 50.1604 30.5867 48.1338 33.68C46.1071 36.7733 43.2271 39.1733 39.4938 40.88C35.8138 42.5333 31.4138 43.36 26.2938 43.36H9.49375L16.5338 36.48V58H0.69375ZM16.5338 38.16L9.49375 30.88H25.3338C28.6404 30.88 31.0938 30.16 32.6938 28.72C34.3471 27.28 35.1738 25.28 35.1738 22.72C35.1738 20.1067 34.3471 18.08 32.6938 16.64C31.0938 15.2 28.6404 14.48 25.3338 14.48H9.49375L16.5338 7.2V38.16ZM58.8969 58V2H74.7369V45.44H101.457V58H58.8969ZM101.552 58L126.272 2H141.872L166.672 58H150.192L130.832 9.76H137.072L117.712 58H101.552ZM115.072 47.12L119.152 35.44H146.512L150.592 47.12H115.072ZM181.807 58V34.32L185.487 43.84L160.447 2H177.167L195.247 32.32H185.567L203.727 2H219.087L194.127 43.84L197.647 34.32V58H181.807ZM274.637 59.12C270.157 59.12 266.024 58.4 262.237 56.96C258.45 55.52 255.144 53.4933 252.317 50.88C249.544 48.2133 247.384 45.12 245.837 41.6C244.29 38.08 243.517 34.2133 243.517 30C243.517 25.7867 244.29 21.92 245.837 18.4C247.384 14.88 249.544 11.8133 252.317 9.2C255.144 6.53333 258.45 4.48 262.237 3.04C266.024 1.6 270.157 0.879996 274.637 0.879996C279.17 0.879996 283.304 1.6 287.037 3.04C290.824 4.48 294.104 6.53333 296.877 9.2C299.65 11.8133 301.81 14.88 303.357 18.4C304.957 21.92 305.757 25.7867 305.757 30C305.757 34.2133 304.957 38.1067 303.357 41.68C301.81 45.2 299.65 48.2667 296.877 50.88C294.104 53.4933 290.824 55.52 287.037 56.96C283.304 58.4 279.17 59.12 274.637 59.12ZM274.637 46C276.77 46 278.744 45.6267 280.557 44.88C282.424 44.1333 284.024 43.0667 285.357 41.68C286.744 40.24 287.81 38.5333 288.557 36.56C289.357 34.5867 289.757 32.4 289.757 30C289.757 27.5467 289.357 25.36 288.557 23.44C287.81 21.4667 286.744 19.7867 285.357 18.4C284.024 16.96 282.424 15.8667 280.557 15.12C278.744 14.3733 276.77 14 274.637 14C272.504 14 270.504 14.3733 268.637 15.12C266.824 15.8667 265.224 16.96 263.837 18.4C262.504 19.7867 261.437 21.4667 260.637 23.44C259.89 25.36 259.517 27.5467 259.517 30C259.517 32.4 259.89 34.5867 260.637 36.56C261.437 38.5333 262.504 40.24 263.837 41.68C265.224 43.0667 266.824 44.1333 268.637 44.88C270.504 45.6267 272.504 46 274.637 46ZM314.053 58V2H327.093L357.973 39.28H351.813V2H367.333V58H354.293L323.413 20.72H329.573V58H314.053Z"/>
</mask>
<path d="M0.69375 58H-0.30625V59H0.69375V58ZM0.69375 2V0.999996H-0.30625V2H0.69375ZM39.4938 4.48L39.0839 5.39218L39.0888 5.39435L39.4938 4.48ZM48.1338 11.68L47.293 12.2215L47.2973 12.228L48.1338 11.68ZM48.1338 33.68L48.9702 34.228L48.9702 34.228L48.1338 33.68ZM39.4938 40.88L39.9036 41.7922L39.9095 41.7895L39.4938 40.88ZM9.49375 43.36L8.79482 42.6448L7.03974 44.36H9.49375V43.36ZM16.5338 36.48H17.5338V34.1045L15.8348 35.7648L16.5338 36.48ZM16.5338 58V59H17.5338V58H16.5338ZM16.5338 38.16L15.8149 38.8552L17.5338 40.6326V38.16H16.5338ZM9.49375 30.88V29.88H7.13562L8.77489 31.5752L9.49375 30.88ZM32.6938 28.72L32.037 27.9659L32.0308 27.9713L32.0248 27.9767L32.6938 28.72ZM32.6938 16.64L32.0248 17.3833L32.0308 17.3887L32.037 17.3941L32.6938 16.64ZM9.49375 14.48L8.77489 13.7848L7.13562 15.48H9.49375V14.48ZM16.5338 7.2H17.5338V4.72738L15.8149 6.50484L16.5338 7.2ZM1.69375 58V2H-0.30625V58H1.69375ZM0.69375 3H26.2938V0.999996H0.69375V3ZM26.2938 3C31.3092 3 35.5625 3.81009 39.0839 5.39217L39.9036 3.56783C36.065 1.84324 31.5183 0.999996 26.2938 0.999996V3ZM39.0888 5.39435C42.6605 6.9761 45.3817 9.25388 47.293 12.2215L48.9745 11.1385C46.8325 7.81278 43.7936 5.29056 39.8987 3.56565L39.0888 5.39435ZM47.2973 12.228C49.2016 15.1346 50.1738 18.6173 50.1738 22.72H52.1738C52.1738 18.2893 51.1192 14.4121 48.9702 11.132L47.2973 12.228ZM50.1738 22.72C50.1738 26.7665 49.2029 30.2234 47.2973 33.132L48.9702 34.228C51.1179 30.95 52.1738 27.1001 52.1738 22.72H50.1738ZM47.2973 33.132C45.3851 36.0506 42.6593 38.3334 39.078 39.9705L39.9095 41.7895C43.7949 40.0133 46.8291 37.4961 48.9702 34.228L47.2973 33.132ZM39.0839 39.9678C35.5625 41.5499 31.3092 42.36 26.2938 42.36V44.36C31.5183 44.36 36.065 43.5168 39.9036 41.7922L39.0839 39.9678ZM26.2938 42.36H9.49375V44.36H26.2938V42.36ZM10.1927 44.0752L17.2327 37.1952L15.8348 35.7648L8.79482 42.6448L10.1927 44.0752ZM15.5338 36.48V58H17.5338V36.48H15.5338ZM16.5338 57H0.69375V59H16.5338V57ZM17.2526 37.4648L10.2126 30.1848L8.77489 31.5752L15.8149 38.8552L17.2526 37.4648ZM9.49375 31.88H25.3338V29.88H9.49375V31.88ZM25.3338 31.88C28.7598 31.88 31.5023 31.1377 33.3627 29.4633L32.0248 27.9767C30.6852 29.1823 28.521 29.88 25.3338 29.88V31.88ZM33.3505 29.4741C35.2593 27.8116 36.1738 25.5156 36.1738 22.72H34.1738C34.1738 25.0444 33.4349 26.7484 32.037 27.9659L33.3505 29.4741ZM36.1738 22.72C36.1738 19.8784 35.264 17.5525 33.3505 15.8859L32.037 17.3941C33.4302 18.6075 34.1738 20.3349 34.1738 22.72H36.1738ZM33.3627 15.8967C31.5023 14.2223 28.7598 13.48 25.3338 13.48V15.48C28.521 15.48 30.6852 16.1777 32.0248 17.3833L33.3627 15.8967ZM25.3338 13.48H9.49375V15.48H25.3338V13.48ZM10.2126 15.1752L17.2526 7.89515L15.8149 6.50484L8.77489 13.7848L10.2126 15.1752ZM15.5338 7.2V38.16H17.5338V7.2H15.5338ZM58.8969 58H57.8969V59H58.8969V58ZM58.8969 2V0.999996H57.8969V2H58.8969ZM74.7369 2H75.7369V0.999996H74.7369V2ZM74.7369 45.44H73.7369V46.44H74.7369V45.44ZM101.457 45.44H102.457V44.44H101.457V45.44ZM101.457 58V59H102.457V58H101.457ZM59.8969 58V2H57.8969V58H59.8969ZM58.8969 3H74.7369V0.999996H58.8969V3ZM73.7369 2V45.44H75.7369V2H73.7369ZM74.7369 46.44H101.457V44.44H74.7369V46.44ZM100.457 45.44V58H102.457V45.44H100.457ZM101.457 57H58.8969V59H101.457V57ZM101.552 58L100.637 57.5962L100.017 59H101.552V58ZM126.272 2V0.999996H125.62L125.357 1.59616L126.272 2ZM141.872 2L142.786 1.59507L142.523 0.999996H141.872V2ZM166.672 58V59H168.208L167.586 57.5951L166.672 58ZM150.192 58L149.264 58.3725L149.516 59H150.192V58ZM130.832 9.76V8.76H129.353L129.904 10.1324L130.832 9.76ZM137.072 9.76L138 10.1324L138.551 8.76H137.072V9.76ZM117.712 58V59H118.388L118.64 58.3725L117.712 58ZM115.072 47.12L114.128 46.7902L113.663 48.12H115.072V47.12ZM119.152 35.44V34.44H118.442L118.208 35.1102L119.152 35.44ZM146.512 35.44L147.456 35.1102L147.222 34.44H146.512V35.44ZM150.592 47.12V48.12H152L151.536 46.7902L150.592 47.12ZM102.467 58.4038L127.187 2.40383L125.357 1.59616L100.637 57.5962L102.467 58.4038ZM126.272 3H141.872V0.999996H126.272V3ZM140.958 2.40492L165.758 58.4049L167.586 57.5951L142.786 1.59507L140.958 2.40492ZM166.672 57H150.192V59H166.672V57ZM151.12 57.6275L131.76 9.38754L129.904 10.1324L149.264 58.3725L151.12 57.6275ZM130.832 10.76H137.072V8.76H130.832V10.76ZM136.144 9.38754L116.784 57.6275L118.64 58.3725L138 10.1324L136.144 9.38754ZM117.712 57H101.552V59H117.712V57ZM116.016 47.4498L120.096 35.7698L118.208 35.1102L114.128 46.7902L116.016 47.4498ZM119.152 36.44H146.512V34.44H119.152V36.44ZM145.568 35.7698L149.648 47.4498L151.536 46.7902L147.456 35.1102L145.568 35.7698ZM150.592 46.12H115.072V48.12H150.592V46.12ZM181.807 58H180.807V59H181.807V58ZM181.807 34.32L182.74 33.9594L180.807 34.32H181.807ZM185.487 43.84L184.629 44.3535L186.42 43.4794L185.487 43.84ZM160.447 2V0.999996H158.683L159.589 2.51353L160.447 2ZM177.167 2L178.026 1.48784L177.735 0.999996H177.167V2ZM195.247 32.32V33.32H197.007L196.106 31.8078L195.247 32.32ZM185.567 32.32L184.709 31.8062L183.802 33.32H185.567V32.32ZM203.727 2V0.999996H203.16L202.869 1.48617L203.727 2ZM219.087 2L219.946 2.51232L220.848 0.999996H219.087V2ZM194.127 43.84L193.189 43.4932L194.986 44.3523L194.127 43.84ZM197.647 34.32H198.647L196.709 33.9732L197.647 34.32ZM197.647 58V59H198.647V58H197.647ZM182.807 58V34.32H180.807V58H182.807ZM180.874 34.6806L184.554 44.2006L186.42 43.4794L182.74 33.9594L180.874 34.6806ZM186.345 43.3265L161.305 1.48647L159.589 2.51353L184.629 44.3535L186.345 43.3265ZM160.447 3H177.167V0.999996H160.447V3ZM176.308 2.51216L194.388 32.8322L196.106 31.8078L178.026 1.48784L176.308 2.51216ZM195.247 31.32H185.567V33.32H195.247V31.32ZM186.425 32.8338L204.585 2.51383L202.869 1.48617L184.709 31.8062L186.425 32.8338ZM203.727 3H219.087V0.999996H203.727V3ZM218.228 1.48768L193.268 43.3277L194.986 44.3523L219.946 2.51232L218.228 1.48768ZM195.065 44.1868L198.585 34.6668L196.709 33.9732L193.189 43.4932L195.065 44.1868ZM196.647 34.32V58H198.647V34.32H196.647ZM197.647 57H181.807V59H197.647V57ZM262.237 56.96L261.881 57.8947L261.881 57.8947L262.237 56.96ZM252.317 50.88L251.624 51.6008L251.631 51.6076L251.638 51.6143L252.317 50.88ZM245.837 41.6L244.921 42.0023L244.921 42.0023L245.837 41.6ZM245.837 18.4L244.921 17.9977L244.921 17.9977L245.837 18.4ZM252.317 9.2L253.003 9.92779L253.003 9.92739L252.317 9.2ZM262.237 3.04L261.881 2.1053L261.881 2.1053L262.237 3.04ZM287.037 3.04L286.677 3.97301L286.681 3.97469L287.037 3.04ZM296.877 9.2L296.184 9.92087L296.191 9.92779L296.877 9.2ZM303.357 18.4L302.441 18.8023L302.447 18.8138L303.357 18.4ZM303.357 41.68L302.444 41.2713L302.441 41.2777L303.357 41.68ZM296.877 50.88L297.563 51.6078L297.563 51.6078L296.877 50.88ZM287.037 56.96L286.681 56.0253L286.677 56.027L287.037 56.96ZM280.557 44.88L280.185 43.9515L280.176 43.9553L280.557 44.88ZM285.357 41.68L284.637 40.9864L284.636 40.9869L285.357 41.68ZM288.557 36.56L287.63 36.1843L287.626 36.1952L287.622 36.2061L288.557 36.56ZM288.557 23.44L287.622 23.7939L287.627 23.8094L287.634 23.8246L288.557 23.44ZM285.357 18.4L284.623 19.0794L284.636 19.0935L284.65 19.1071L285.357 18.4ZM280.557 15.12L280.176 16.0447L280.185 16.0485L280.557 15.12ZM268.637 15.12L268.265 14.1915L268.256 14.1953L268.637 15.12ZM263.837 18.4L263.117 17.7064L263.116 17.7069L263.837 18.4ZM260.637 23.44L259.71 23.0643L259.707 23.0709L259.705 23.0776L260.637 23.44ZM260.637 36.56L259.702 36.9139L259.706 36.9248L259.71 36.9357L260.637 36.56ZM263.837 41.68L263.103 42.3594L263.116 42.3735L263.13 42.3871L263.837 41.68ZM268.637 44.88L268.256 45.8047L268.265 45.8085L268.637 44.88ZM274.637 58.12C270.266 58.12 266.254 57.4178 262.592 56.0253L261.881 57.8947C265.793 59.3822 270.048 60.12 274.637 60.12V58.12ZM262.592 56.0253C258.919 54.6284 255.724 52.6677 252.996 50.1457L251.638 51.6143C254.564 54.319 257.981 56.4116 261.881 57.8947L262.592 56.0253ZM253.01 50.1592C250.331 47.5831 248.246 44.5979 246.752 41.1977L244.921 42.0023C246.521 45.6421 248.756 48.8436 251.624 51.6008L253.01 50.1592ZM246.752 41.1977C245.267 37.8162 244.517 34.0882 244.517 30H242.517C242.517 34.3384 243.314 38.3438 244.921 42.0023L246.752 41.1977ZM244.517 30C244.517 25.9118 245.267 22.1838 246.752 18.8023L244.921 17.9977C243.314 21.6562 242.517 25.6616 242.517 30H244.517ZM246.752 18.8023C248.246 15.404 250.328 12.4483 253.003 9.92779L251.631 8.47221C248.759 11.1784 246.521 14.356 244.921 17.9977L246.752 18.8023ZM253.003 9.92739C255.73 7.35471 258.923 5.37002 262.592 3.97469L261.881 2.1053C257.977 3.58998 254.557 5.71195 251.631 8.47261L253.003 9.92739ZM262.592 3.97469C266.254 2.5822 270.266 1.88 274.637 1.88V-0.120004C270.048 -0.120004 265.793 0.617788 261.881 2.1053L262.592 3.97469ZM274.637 1.88C279.063 1.88 283.073 2.58277 286.677 3.973L287.397 2.107C283.534 0.617224 279.277 -0.120004 274.637 -0.120004V1.88ZM286.681 3.97469C290.349 5.36943 293.513 7.35235 296.184 9.92083L297.57 8.47917C294.695 5.71431 291.298 3.59056 287.392 2.1053L286.681 3.97469ZM296.191 9.92779C298.866 12.4483 300.948 15.404 302.441 18.8023L304.272 17.9977C302.672 14.356 300.435 11.1784 297.563 8.47221L296.191 9.92779ZM302.447 18.8138C303.982 22.1925 304.757 25.9165 304.757 30H306.757C306.757 25.6569 305.931 21.6474 304.267 17.9862L302.447 18.8138ZM304.757 30C304.757 34.0834 303.982 37.8361 302.444 41.2713L304.27 42.0887C305.931 38.3772 306.757 34.3433 306.757 30H304.757ZM302.441 41.2777C300.948 44.676 298.866 47.6317 296.191 50.1522L297.563 51.6078C300.435 48.9016 302.672 45.724 304.272 42.0823L302.441 41.2777ZM296.191 50.1522C293.519 52.67 290.353 54.629 286.681 56.0253L287.392 57.8947C291.294 56.411 294.688 54.3167 297.563 51.6078L296.191 50.1522ZM286.677 56.027C283.073 57.4172 279.063 58.12 274.637 58.12V60.12C279.277 60.12 283.534 59.3828 287.397 57.893L286.677 56.027ZM274.637 47C276.889 47 278.993 46.6053 280.938 45.8047L280.176 43.9553C278.494 44.648 276.651 45 274.637 45V47ZM280.928 45.8085C282.921 45.0115 284.641 43.8668 286.078 42.3731L284.636 40.9869C283.406 42.2666 281.926 43.2552 280.185 43.9515L280.928 45.8085ZM286.077 42.3736C287.563 40.8308 288.7 39.0067 289.492 36.9139L287.622 36.2061C286.92 38.0599 285.924 39.6492 284.637 40.9864L286.077 42.3736ZM289.484 36.9357C290.338 34.8288 290.757 32.5125 290.757 30H288.757C288.757 32.2875 288.376 34.3445 287.63 36.1843L289.484 36.9357ZM290.757 30C290.757 27.438 290.339 25.1171 289.48 23.0554L287.634 23.8246C288.375 25.6029 288.757 27.6554 288.757 30H290.757ZM289.492 23.0861C288.699 20.9904 287.558 19.1872 286.064 17.6929L284.65 19.1071C285.929 20.3861 286.921 21.9429 287.622 23.7939L289.492 23.0861ZM286.091 17.7206C284.654 16.169 282.929 14.9919 280.928 14.1915L280.185 16.0485C281.918 16.7414 283.393 17.751 284.623 19.0794L286.091 17.7206ZM280.938 14.1953C278.993 13.3947 276.889 13 274.637 13V15C276.651 15 278.494 15.352 280.176 16.0447L280.938 14.1953ZM274.637 13C272.384 13 270.257 13.3948 268.265 14.1915L269.008 16.0485C270.75 15.3519 272.623 15 274.637 15V13ZM268.256 14.1953C266.312 14.9957 264.597 16.1687 263.117 17.7064L264.557 19.0936C265.85 17.7513 267.335 16.7376 269.018 16.0447L268.256 14.1953ZM263.116 17.7069C261.686 19.1946 260.553 20.9856 259.71 23.0643L261.564 23.8157C262.321 21.9477 263.322 20.3787 264.558 19.0931L263.116 17.7069ZM259.705 23.0776C258.906 25.1329 258.517 27.4458 258.517 30H260.517C260.517 27.6475 260.875 25.5871 261.569 23.8024L259.705 23.0776ZM258.517 30C258.517 32.5044 258.907 34.813 259.702 36.9139L261.572 36.2061C260.874 34.3603 260.517 32.2955 260.517 30H258.517ZM259.71 36.9357C260.552 39.0115 261.681 40.8234 263.103 42.3594L264.571 41.0006C263.326 39.6566 262.322 38.0551 261.564 36.1843L259.71 36.9357ZM263.13 42.3871C264.61 43.8671 266.321 45.0077 268.256 45.8047L269.018 43.9553C267.326 43.2589 265.837 42.2662 264.544 40.9729L263.13 42.3871ZM268.265 45.8085C270.257 46.6052 272.384 47 274.637 47V45C272.623 45 270.75 44.6481 269.008 43.9515L268.265 45.8085ZM314.053 58H313.053V59H314.053V58ZM314.053 2V0.999996H313.053V2H314.053ZM327.093 2L327.863 1.36209L327.563 0.999996H327.093V2ZM357.973 39.28V40.28H360.1L358.743 38.6421L357.973 39.28ZM351.813 39.28H350.813V40.28H351.813V39.28ZM351.813 2V0.999996H350.813V2H351.813ZM367.333 2H368.333V0.999996H367.333V2ZM367.333 58V59H368.333V58H367.333ZM354.293 58L353.523 58.6379L353.823 59H354.293V58ZM323.413 20.72V19.72H321.286L322.643 21.3579L323.413 20.72ZM329.573 20.72H330.573V19.72H329.573V20.72ZM329.573 58V59H330.573V58H329.573ZM315.053 58V2H313.053V58H315.053ZM314.053 3H327.093V0.999996H314.053V3ZM326.323 2.6379L357.203 39.9179L358.743 38.6421L327.863 1.36209L326.323 2.6379ZM357.973 38.28H351.813V40.28H357.973V38.28ZM352.813 39.28V2H350.813V39.28H352.813ZM351.813 3H367.333V0.999996H351.813V3ZM366.333 2V58H368.333V2H366.333ZM367.333 57H354.293V59H367.333V57ZM355.063 57.3621L324.183 20.0821L322.643 21.3579L353.523 58.6379L355.063 57.3621ZM323.413 21.72H329.573V19.72H323.413V21.72ZM328.573 20.72V58H330.573V20.72H328.573ZM329.573 57H314.053V59H329.573V57Z" fill="#F0F0F0" mask="url(#path-1-outside-1_2391_477)"/>
</svg>
