<svg width="138" height="134" viewBox="0 0 138 134" fill="none" xmlns="http://www.w3.org/2000/svg">
<path d="M87.8334 130.512C88.5884 132.978 91.2066 134.38 93.6159 133.46C107.491 128.162 119.329 118.508 127.313 105.886C136.132 91.9447 139.664 75.3055 137.269 58.9842C134.875 42.6629 126.712 27.7395 114.261 16.9188C101.81 6.09815 85.8939 0.0963248 69.3981 0.00114553C52.9024 -0.0940338 36.9183 5.72373 24.3431 16.4C11.7678 27.0763 3.43361 41.9045 0.850919 58.1971C-1.73177 74.4897 1.60803 91.1685 10.265 105.21C18.1027 117.924 29.8292 127.714 43.6419 133.171C46.0404 134.119 48.6747 132.748 49.4581 130.29C50.2415 127.833 48.8756 125.224 46.4873 124.25C34.7989 119.488 24.8803 111.121 18.2147 100.309C10.7295 88.168 7.84173 73.7467 10.0749 59.6593C12.308 45.5718 19.5142 32.7506 30.3874 23.5194C41.2606 14.2881 55.0812 9.2578 69.3442 9.3401C83.6073 9.4224 97.3689 14.6119 108.135 23.968C118.901 33.3241 125.959 46.2276 128.029 60.3398C130.099 74.4521 127.045 88.8391 119.421 100.893C112.631 111.628 102.616 119.879 90.8736 124.507C88.4742 125.452 87.0784 128.046 87.8334 130.512Z" fill="url(#paint0_angular_2084_927)"/>
<defs>
<radialGradient id="paint0_angular_2084_927" cx="0" cy="0" r="1" gradientUnits="userSpaceOnUse" gradientTransform="translate(86.0917 47.6353) rotate(105.755) scale(183.015)">
<stop stop-color="#FC7B03"/>
<stop offset="1" stop-color="#250A02"/>
</radialGradient>
</defs>
</svg>
