<svg width="44" height="44" viewBox="0 0 44 44" fill="none" xmlns="http://www.w3.org/2000/svg">
<rect x="0.5" y="0.5" width="43" height="43" rx="0.5" stroke="white"/>
<rect x="14.5186" y="18.7632" width="15" height="11" stroke="#FF44D3"/>
<path d="M14.6534 18.581L14.6526 18.5787L25.874 14.7319L25.9191 14.7802L14.6534 18.581Z" fill="white" stroke="#FF44D3"/>
<mask id="path-4-inside-1_151_729" fill="white">
<path d="M26.0186 19.1538L26.0186 14.1538L27.0186 14.1538L27.0186 19.1538L26.0186 19.1538Z"/>
</mask>
<path d="M26.0186 19.1538L26.0186 14.1538L27.0186 14.1538L27.0186 19.1538L26.0186 19.1538Z" fill="white"/>
<path d="M26.0186 19.1538L25.0186 19.1538L25.0186 20.1538L26.0186 20.1538L26.0186 19.1538ZM26.0186 14.1538L26.0186 13.1538L25.0186 13.1538L25.0186 14.1538L26.0186 14.1538ZM27.0186 14.1538L28.0186 14.1538L28.0186 13.1538L27.0186 13.1538L27.0186 14.1538ZM27.0186 19.1538L27.0186 20.1538L28.0186 20.1538L28.0186 19.1538L27.0186 19.1538ZM27.0186 19.1538L27.0186 14.1538L25.0186 14.1538L25.0186 19.1538L27.0186 19.1538ZM26.0186 15.1538L27.0186 15.1538L27.0186 13.1538L26.0186 13.1538L26.0186 15.1538ZM26.0186 14.1538L26.0186 19.1538L28.0186 19.1538L28.0186 14.1538L26.0186 14.1538ZM27.0186 18.1538L26.0186 18.1538L26.0186 20.1538L27.0186 20.1538L27.0186 18.1538Z" fill="#FF44D3" mask="url(#path-4-inside-1_151_729)"/>
</svg>
